<?xml version="1.0" encoding="utf-8"?>
<!-- Generator: Adobe Illustrator 21.0.2, SVG Export Plug-In . SVG Version: 6.00 Build 0)  -->
<svg version="1.1" id="Warstwa_1" xmlns="http://www.w3.org/2000/svg" xmlns:xlink="http://www.w3.org/1999/xlink" x="0px" y="0px"
	 viewBox="0 0 627.5 129.9" style="enable-background:new 0 0 627.5 129.9;" xml:space="preserve">
<style type="text/css">
	.st0{fill:#FFFFFF;}
</style>
<title>BRAND24</title>
<path class="st0" d="M27.5,72.1h10.9c11,0,19.3,4.2,19.3,18.8c0,14.6-8.2,18.9-20.3,18.9h-9.8V72.1z M27.5,21.8h9.1
	c12.6,0,18.2,4.4,18.2,16.3s-6.1,16.5-20.2,16.5h-7.2V21.8z M2.2,3.2v125.2h42.6c29.5,0,39.1-17,39.1-36.6
	c0-16.8-8.8-27.2-22.8-29.1v-0.4C73.8,58.8,80.1,48.5,80.1,35c0-24-14.9-31.7-35.6-31.7H2.2z M228.2,25h0.4l12.1,56.3h-24.5
	L228.2,25z M120.6,21.8h11.9c11.7,0,17.5,5.8,17.5,17.4c0,13.5-6.8,18.8-18.9,18.8h-10.5V21.8z M212.8,3.2l-32.8,124
	c-4.5-2.7-5.2-9.2-5.4-22.3c-0.5-26.5-3-35.9-20.2-38.2v-0.4c14.2-3,20.9-14,20.9-30.9c0-21.6-12.5-32.3-33.3-32.3H95.3v125.2h25.3
	V75.5h13.5c10.3,0,14.4,6,14.9,15.8l0.7,24c0.2,4.9,0.5,9.6,3.2,13.1h27.4H206l5.8-26.5h33.3l5.8,26.5h26.3L244,3.2H212.8z
	 M341.5,3.2V89h-0.3L310.7,3.2h-29.1v125.2h23.1V40.7h0.4l30.9,87.7h28.8V3.2H341.5z M404.3,21.8H415c19.1,0,21.6,14.6,21.6,43
	c0,34-3.5,45.1-21,45.1h-11.2V21.8z M379,3.2v125.2h39.8c33.5,0,43-20.2,43-64.3c0-37-6.5-60.8-41.4-60.8H379z"/>
<path class="st0" d="M589.4,35.8h-0.4L564.9,83h24.5V35.8z M612.6,102.6v25.8h-23.1v-25.8h-44.2V81.9l41.2-77.7h26.1V83h11.9v19.6
	H612.6z M542.6,128.4h-76.5c0-22.1,8.9-37.3,27.4-54.3l10.2-9.5c11.2-9.8,13-15.8,13-28.4c0-10.3-4-15.4-12.3-15.4
	c-12.5,0-14,11-14,24.2h-24.2v-4.7c0-23.1,11.9-35.9,38.6-35.9c25.1,0,37.2,12.3,37.2,33.8c0,16.1-5.3,26.8-19.3,39.4l-14,13
	c-7.5,6.8-11.6,13.5-12.8,18.2h46.8V128.4z"/>
</svg>
