<?xml version="1.0" encoding="UTF-8"?> <svg xmlns="http://www.w3.org/2000/svg" xmlns:xlink="http://www.w3.org/1999/xlink" width="607px" height="211px" viewBox="0 0 607 211"><!-- Generator: Sketch 54.1 (76490) - https://sketchapp.com --><title>Heap-RGB_Logo-Horizontal-Lockup-Color-Reverse</title><desc>Created with Sketch.</desc><g id="Page-1" stroke="none" stroke-width="1" fill="none" fill-rule="evenodd"><g id="Heap-RGB_Logo-Horizontal-Lockup-Color-Reverse" fill-rule="nonzero"><path d="M472.52,75.7 L472.52,75.7 C458.43,75.7 443.87,83.78 438.16,93.92 L446.89,98.97 L453.22,102.62 C455.86,97.01 464.34,92.71 472.16,92.71 C472.29,92.71 472.4,92.71 472.52,92.71 L472.52,92.71 C483.64,92.89 489.13,99.8 489.13,108.71 L489.13,115.92 C485.53,113.31 476.52,110.51 468.51,110.51 C448.9,110.51 433.88,122.32 433.88,139.13 C433.88,157.34 448.88,168.13 467.11,168.13 C476.198027,168.104867 484.764675,163.882443 490.32,156.69 L492.1,166.53 L508.15,166.53 L508.15,108.32 C508.11,88.12 494.92,75.72 472.52,75.7 Z M471.37,152 L470.78,152 C461.78,152 452.46,148.17 452.46,139.19 C452.46,130.42 461.8,126.62 470.78,126.59 L471.37,126.59 C480.37,126.59 489.69,130.42 489.69,139.19 C489.69,148.12 480.35,151.92 471.37,152 Z" id="Shape" fill="#FFFFFF"></path><path d="M409,140.91 C404.21,148.21 396.21,151.75 386.61,151.75 C373.8,151.75 364.79,142.34 364.19,126.75 L424.84,126.75 L424.84,119.55 C424.84,93.55 411.23,75.72 386.21,75.72 C361.99,75.72 344.57,95.72 344.57,122.35 C344.57,149.77 361.79,168.58 386.57,168.58 C404.05,168.58 417.57,161.34 423.35,149.25 L409,140.91 Z M386.41,92.51 C398.62,92.51 404.83,101.32 405.03,112.12 L364.76,112.12 C367.16,99.31 375.37,92.51 386.38,92.51 L386.41,92.51 Z" id="Shape" fill="#FFFFFF"></path><path d="M543.18,199.61 L523.18,199.61 L523.18,77.7 L540,77.7 L541.63,88.8 C545.33,83.73 552.5,75.7 566.52,75.7 C592.52,75.7 607,97.31 607,122.13 C607,146.95 591.78,168.56 565.76,168.56 C555.96,168.56 547.15,163.96 543.15,158.96 L543.18,199.61 Z M564.34,93.61 C550.14,93.61 541.66,105.76 541.66,122.09 C541.66,138.42 550.14,150.57 564.34,150.57 C578.54,150.57 587,138.46 587,122.13 C587,105.8 578.53,93.65 564.34,93.65 L564.34,93.61 Z" id="Shape" fill="#FFFFFF"></path><polygon id="Path" fill="#FFFFFF" points="331.64 44.61 331.64 166.61 310.82 166.61 310.82 114.79 249 114.79 249 166.56 228.15 166.56 228.15 44.61 249 44.61 249 96.38 310.85 96.38 310.85 44.61"></polygon><path d="M180.57,50.65 L95.82,1.72 C93.6764047,0.480008347 91.0335953,0.480008347 88.89,1.72 L4.14,50.65 C1.99825628,51.8889171 0.679523925,54.1757362 0.68,56.65 L0.68,154.51 C0.681579939,156.983713 1.99976265,159.269579 4.14,160.51 L88.89,209.44 C91.0335953,210.679992 93.6764047,210.679992 95.82,209.44 L180.57,160.51 C182.710237,159.269579 184.02842,156.983713 184.03,154.51 L184.03,56.65 C184.030476,54.1757362 182.711744,51.8889171 180.57,50.65 Z M162.66,146.17 L92.35,186.77 L22,146.17 L22,65 L92.31,24.41 L92.31,24.41 L92.31,99.6 C92.3128468,100.837253 92.9742599,101.979395 94.0459539,102.59768 C95.1176479,103.215965 96.4374788,103.216849 97.51,102.6 L162.66,65 L162.66,65 L162.66,146.17 Z" id="Shape" fill="#ED485F"></path></g></g></svg> 