<svg width="109" height="36" viewBox="0 0 109 36" fill="none" xmlns="http://www.w3.org/2000/svg">
<path d="M11.25 13.6284H33.3C32.7813 16.049 31.4006 18.2246 29.3915 19.787C27.3825 21.3493 24.8685 22.2024 22.275 22.2019H0C0.518694 19.7813 1.89941 17.6056 3.90847 16.0433C5.91753 14.481 8.43153 13.6279 11.025 13.6284H11.25ZM33.3 9.34161C32.7813 6.92094 31.4006 4.74534 29.3915 3.18301C27.3825 1.62067 24.8685 0.767562 22.275 0.768067H11.025V9.34161H33.3ZM11.025 35.0622C13.6185 35.0627 16.1325 34.2096 18.1415 32.6473C20.1506 31.085 21.5313 28.9093 22.05 26.4887H11.025V35.0622Z" fill="url(#paint0_linear)"/>
<path d="M58.6912 20.0237C58.6912 23.922 55.8562 26.4539 52.0116 26.4539C50.3241 26.4539 48.8587 25.918 47.7928 24.7659V30.8451H44.7188V13.757H47.6494V15.3994C48.6844 14.2017 50.2144 13.615 52.0116 13.615C55.8562 13.6284 58.6912 16.1522 58.6912 20.0237ZM55.5609 20.0237C55.5609 17.6312 53.8734 16.104 51.6684 16.104C49.4634 16.104 47.7478 17.6312 47.7478 20.0237C47.7478 22.4163 49.4353 23.9461 51.6684 23.9461C53.9016 23.9461 55.5609 22.4189 55.5609 20.0237Z" fill="white"/>
<path d="M68.2537 13.6284V16.4095C68.0184 16.365 67.7792 16.3416 67.5394 16.3398C65.1965 16.3398 63.72 17.6526 63.72 20.214V26.2931H60.6262V13.757H63.5625V15.5869C64.4625 14.2741 66.06 13.6284 68.2537 13.6284Z" fill="white"/>
<path d="M69.165 20.0237C69.165 16.2728 72.1238 13.615 76.1654 13.615C80.2576 13.615 83.1967 16.2674 83.1967 20.0237C83.1967 23.78 80.266 26.4539 76.1654 26.4539C72.1238 26.4565 69.165 23.78 69.165 20.0237ZM80.0832 20.0237C80.0832 17.6312 78.3957 16.104 76.1654 16.104C73.9351 16.104 72.2813 17.6312 72.2813 20.0237C72.2813 22.4163 73.9688 23.9461 76.1766 23.9461C78.3845 23.9461 80.0832 22.4189 80.0832 20.0237Z" fill="white"/>
<path d="M84.5691 20.0237C84.5691 16.2728 87.5278 13.615 91.5694 13.615C95.6588 13.615 98.6006 16.2674 98.6006 20.0237C98.6006 23.78 95.6672 26.4539 91.5694 26.4539C87.525 26.4565 84.5691 23.78 84.5691 20.0237ZM95.4872 20.0237C95.4872 17.6312 93.7997 16.104 91.5694 16.104C89.3391 16.104 87.6741 17.6312 87.6741 20.0237C87.6741 22.4163 89.3616 23.9461 91.5694 23.9461C93.7772 23.9461 95.4872 22.4189 95.4872 20.0237Z" fill="white"/>
<path d="M103.57 13.0924V13.8453H107.193V16.1923H103.643V26.293H100.564V13.0523C100.564 10.4213 102.251 8.70923 105.297 8.70923C106.355 8.70923 107.367 8.92089 108.056 9.38975L107.193 11.5974C106.701 11.2607 106.111 11.0798 105.505 11.0803C104.237 11.0803 103.57 11.7528 103.57 13.0924Z" fill="white"/>
<defs>
<linearGradient id="paint0_linear" x1="16.65" y1="0.768067" x2="16.65" y2="35.0622" gradientUnits="userSpaceOnUse">
<stop stop-color="#FF1493"/>
<stop offset="1" stop-color="#FBB138"/>
</linearGradient>
</defs>
</svg>
