<svg xmlns="http://www.w3.org/2000/svg" viewBox="0 0 639.72 104.24"><defs><style>.cls-1{fill:#fff;}.cls-2{fill:#f2f2f2;}</style></defs><g id="Layer_2" data-name="Layer 2"><g id="Layer_1-2" data-name="Layer 1"><path class="cls-1" d="M27.38,90.23c5,0,8-1.52,8-4,0-1.87-1.74-3.38-5.47-4h0l-11.41-2h0C8.72,78.69,2,73.21,2,63.3,2,51.41,12.11,44.41,27.15,44.41c11.36,0,24.19,4.18,26.22,17.28a2,2,0,0,1-2,2.31H38.47a2,2,0,0,1-1.91-1.41c-1-3.34-4.66-4.89-9.3-4.89-4.89,0-7.11,1.87-7.11,4.08,0,1.87,1.4,3.61,5.82,4.43h0L36.58,68h0c10.6,2,17.59,7.12,17.59,17.14,0,13.06-11.77,19.12-26.46,19.12-14,0-25.52-5.53-27.7-18.88a2,2,0,0,1,.45-1.62A2,2,0,0,1,2,83l13,.09a2,2,0,0,1,1.89,1.37C18.17,88.43,22,90.23,27.38,90.23Z"/><path class="cls-1" d="M97.14,102.47a2,2,0,0,1-2-2,.89.89,0,0,0-.47-.78.88.88,0,0,0-.91.06,24,24,0,0,1-14.13,4.47c-14.34,0-24.13-9.91-24.13-26V47.93a2,2,0,0,1,2-2H72.38a2,2,0,0,1,2,2V75.31c0,8,4.2,11.89,10.38,11.89,2.36,0,5.92-.94,9.82-5a2,2,0,0,0,.56-1.38V47.93a2,2,0,0,1,2-2H112a2,2,0,0,1,2,2v52.54a2,2,0,0,1-2,2Z"/><path class="cls-1" d="M204.6,90.23c5,0,8-1.52,8-4,0-1.87-1.74-3.38-5.47-4l-11.43-2c-9.79-1.63-16.56-7.11-16.56-17,0-11.89,10.15-18.89,25.19-18.89,11.36,0,24.19,4.18,26.22,17.28a2,2,0,0,1-.45,1.61,2,2,0,0,1-1.52.7H215.69a2,2,0,0,1-1.91-1.41c-1-3.34-4.66-4.89-9.3-4.89-4.89,0-7.11,1.87-7.11,4.08,0,1.87,1.4,3.62,5.83,4.43L213.81,68c10.61,2,17.61,7.11,17.61,17.14,0,13.06-11.78,19.12-26.47,19.12-14,0-25.52-5.53-27.7-18.88a2,2,0,0,1,2-2.32l13,.09a2,2,0,0,1,1.89,1.37C195.39,88.43,199.24,90.23,204.6,90.23Z"/><path class="cls-1" d="M270.63,80.66a2,2,0,0,1,1.91-1.39h14a2,2,0,0,1,2,2.34c-2.3,13.29-13.84,22.14-28.61,22.14C242.07,103.75,229,91.4,229,74.14s13.06-29.5,30.89-29.5c14.77,0,26.31,8.86,28.61,22.14a2,2,0,0,1-2,2.35h-14a2,2,0,0,1-1.91-1.39c-1.4-4.34-5.44-7.12-10.73-7.12-8,0-12.94,5.83-12.94,13.52s4.9,13.64,12.94,13.64C265.19,87.78,269.23,85,270.63,80.66Z"/><path class="cls-1" d="M309.92,69.56a2,2,0,0,0-.65,1.47v29.44a2,2,0,0,1-2,2H292.39a2,2,0,0,1-2-2V47.93a2,2,0,0,1,2-2h14.88a2,2,0,0,1,2,2v2a1,1,0,0,0,1.61.79,27.85,27.85,0,0,1,15.75-5.64,2,2,0,0,1,1.49.55,2,2,0,0,1,.62,1.45v14a2,2,0,0,1-1.84,2C319.36,63.61,314,65.82,309.92,69.56Z"/><path class="cls-1" d="M329.92,26.9c-.22-5.54,4.48-10.64,10-11.12,6.34-.56,11.82,3.87,12.13,10.11.28,5.68-4.51,10.75-10.18,11.14C335.44,37.48,330.16,33,329.92,26.9Zm3.74,75.57a2,2,0,0,1-2-2V47.93a2,2,0,0,1,2-2h14.89a2,2,0,0,1,2,2v52.54a2,2,0,0,1-2,2Z"/><path class="cls-1" d="M419,74.26c0,16.9-12.82,29.61-28.09,29.61A28.29,28.29,0,0,1,376.13,100a.48.48,0,0,0-.48,0,.47.47,0,0,0-.24.42v0a2,2,0,0,1-2,2H358.52a2,2,0,0,1-2-2V25.33a2,2,0,0,1,1.59-2L373,20.21a2,2,0,0,1,2.42,1.95V47.43a1,1,0,0,0,.49.86,1,1,0,0,0,1,0,28.52,28.52,0,0,1,14-3.43C406.19,44.88,419,57.47,419,74.26Zm-18.54-.53a13.83,13.83,0,0,0-17-13.08A14.21,14.21,0,0,0,376,65a2,2,0,0,0-.54,1.36v16a2,2,0,0,0,.54,1.37,14.46,14.46,0,0,0,11.23,4.64C395.05,88.36,400.72,81.91,400.47,73.73Z"/><path class="cls-1" d="M180.66,74.26c0,16.9-12.83,29.61-28.1,29.61A28.28,28.28,0,0,1,137.78,100a.48.48,0,0,0-.48,0,.48.48,0,0,0-.25.42v0a2,2,0,0,1-2,2H120.17a2,2,0,0,1-2-2V25.33a2,2,0,0,1,1.58-2l14.89-3.16a2,2,0,0,1,2.41,1.95V47.43a1,1,0,0,0,1.49.88,28.5,28.5,0,0,1,14-3.43C167.83,44.88,180.66,57.47,180.66,74.26Zm-18.55-.53a13.83,13.83,0,0,0-17-13.08A14.25,14.25,0,0,0,137.59,65a2,2,0,0,0-.54,1.36v16a2,2,0,0,0,.55,1.37,14.46,14.46,0,0,0,11.23,4.64C156.7,88.36,162.37,81.91,162.11,73.73Z"/><path class="cls-1" d="M497.68,69.56A2,2,0,0,0,497,71v29.44a2,2,0,0,1-2,2H480.15a2,2,0,0,1-2-2V47.93a2,2,0,0,1,2-2H495a2,2,0,0,1,2,2v2a1,1,0,0,0,1.6.79,27.88,27.88,0,0,1,15.75-5.64,2,2,0,0,1,1.49.55,2,2,0,0,1,.63,1.45v14a2,2,0,0,1-1.85,2C506.92,63.61,501.71,65.81,497.68,69.56Z"/><path class="cls-1" d="M543.31,90.23c5,0,8.05-1.52,8.05-4,0-1.87-1.75-3.38-5.48-4l-11.43-2c-9.79-1.63-16.56-7.11-16.56-17,0-11.89,10.15-18.89,25.19-18.89,11.36,0,24.19,4.18,26.22,17.28a2,2,0,0,1-.45,1.61,2,2,0,0,1-1.52.7H554.4a2,2,0,0,1-1.91-1.41c-1-3.34-4.66-4.89-9.3-4.89-4.89,0-7.11,1.87-7.11,4.08,0,1.87,1.4,3.62,5.83,4.43L552.52,68c10.61,2,17.61,7.11,17.61,17.14,0,13.06-11.78,19.12-26.47,19.12-14,0-25.52-5.53-27.7-18.88A2,2,0,0,1,518,83l13,.09a2,2,0,0,1,1.89,1.37C534.1,88.43,538,90.23,543.31,90.23Z"/><path class="cls-1" d="M475.33,72.22a2,2,0,0,1-1.56,2.28l-36.23,7.7a1,1,0,0,0-.72.6,1,1,0,0,0,.09.94c2.68,4,7.15,6.37,13.57,5,3.39-.72,5.85-2.43,7.12-4.75a2,2,0,0,1,1.75-1h14a2,2,0,0,1,1.91,2.6c-2.76,8.81-10.83,15.47-21.93,17.83-18.13,3.86-32.79-5.66-36.38-22.54s5.61-31.35,23.29-35.11c16.08-3.42,30.65,5,34.17,21.7C474.82,69.21,475.12,71,475.33,72.22Zm-41.6-1.88a1,1,0,0,0,.32.85,1,1,0,0,0,.88.24L455,67.16a1,1,0,0,0,.69-.54,1,1,0,0,0,0-.88c-2.45-5-6.88-6.91-12.4-5.74C437.53,61.23,434.34,65.14,433.73,70.34Z"/><path class="cls-2" d="M606.52,27.84c-.26,2.9-5.7,9.43-3.47,9.43,2.48,0-8.63,3.16-7.38,1a7,7,0,0,0-6-10.43H584a13.92,13.92,0,0,1-13.91-13.92h0A13.92,13.92,0,0,1,584,0h23.82l13.22,6.3Z"/><path class="cls-1" d="M632.76,1.86a14,14,0,0,0-7-1.85H605.71a7,7,0,0,1,6,10.44L592.87,43.12A13.92,13.92,0,1,0,617,57l20.88-36.16A13.94,13.94,0,0,0,632.76,1.86Z"/></g></g></svg>