<?xml version="1.0" encoding="utf-8"?>
<!-- Generator: Adobe Illustrator 22.0.1, SVG Export Plug-In . SVG Version: 6.00 Build 0)  -->
<svg version="1.1" id="Layer_1" xmlns="http://www.w3.org/2000/svg" xmlns:xlink="http://www.w3.org/1999/xlink" x="0px" y="0px"
	 viewBox="0 0 150 36.7" style="enable-background:new 0 0 150 36.7;" xml:space="preserve">
<style type="text/css">
	.st0{filter:url(#Adobe_OpacityMaskFilter);}
	.st1{fill:#FFFFFF;}
	.st2{mask:url(#SVGID_1_);fill:#FFFFFF;}
</style>
<title>logo</title>
<defs>
	<filter id="Adobe_OpacityMaskFilter" filterUnits="userSpaceOnUse" x="0" y="6.7" width="25.9" height="25">

			<feColorMatrix  type="matrix" values="-1 0 0 0 1  0 -1 0 0 1  0 0 -1 0 1  0 0 0 1 0" color-interpolation-filters="sRGB" result="source"/>
		<feFlood  style="flood-color:white;flood-opacity:1" result="back"/>
		<feBlend  in="source" in2="back" mode="normal"/>
	</filter>
</defs>
<mask maskUnits="userSpaceOnUse" x="0" y="6.7" width="25.9" height="25" id="SVGID_1_">
	<g class="st0">
		<path class="st1" d="M6.4,27.3c-0.6-0.7-1-1.7-0.9-2.7c0-0.8,0.1-1.5,0.3-2.3l1.3-6.1c0-0.1,0.1-0.4,0.2-0.9
			c0.1-0.5,0.2-1.1,0.2-1.7c0-0.3-0.1-0.5-0.2-0.8c-0.1-0.2-0.3-0.3-0.6-0.3c-0.6,0-1.1,0.3-1.5,0.6c-0.7,0.5-1.3,1.1-1.8,1.8
			c-0.1,0.2-0.4,0.4-0.7,0.4c-0.2,0-0.4-0.1-0.5-0.3C2.1,14.9,2,14.7,2,14.5C2,14,2.2,13.4,2.6,13c1.1-1.8,3-2.9,5.1-3
			c0.7,0,1.5,0.3,2,0.8c0.5,0.7,0.8,1.5,0.7,2.3c0,0.7,0,1.3-0.1,2c-0.1,0.6-0.3,1.4-0.5,2.5L9,21.6l-0.1,0.7
			c-0.1,0.3-0.1,0.6-0.2,0.9c0,0.3-0.1,0.6-0.1,0.9c0,0.4,0.1,0.8,0.4,1.1c0.3,0.3,0.7,0.4,1.1,0.4c1-0.1,2-0.6,2.6-1.4
			c1.1-1.3,1.9-2.8,2.4-4.4c0.9-2.5,1.4-5.1,1.7-7.8c0-0.5,0.2-1.1,0.4-1.5c0.3-0.3,0.7-0.5,1.1-0.5c0.4,0,0.8,0.1,1.1,0.4
			c0.3,0.4,0.4,0.9,0.4,1.5c0,0.5-0.1,1-0.1,1.5c-0.1,0.6-0.2,1.5-0.4,2.6c-0.4,2.2-0.7,4.2-0.9,6c-0.1,0.6-0.1,1.2-0.2,1.8
			c0,0.5,0.1,1,0.4,1.3c0.3,0.3,0.7,0.5,1.1,0.5c0.5,0,1-0.2,1.4-0.5c0.6-0.5,1.1-1,1.6-1.6c0.1-0.2,0.4-0.3,0.6-0.3
			c0.2,0,0.4,0.1,0.4,0.3c0.1,0.2,0.2,0.5,0.2,0.7c0,0.5-0.1,1-0.4,1.3c-0.6,0.8-1.4,1.5-2.2,2c-0.7,0.4-1.5,0.6-2.3,0.6
			c-1,0.1-2-0.3-2.7-0.9c-0.6-0.6-1-1.5-0.9-2.4c0.1-1.1,0.2-2.1,0.3-3.2c-0.5,1.8-1.5,3.4-2.7,4.8c-1,1.1-2.3,1.6-3.8,1.6
			C8.1,28.4,7.2,28,6.4,27.3z"/>
	</g>
</mask>
<path class="st2" d="M6.3,6.7h13.3c3.5,0,6.3,2.8,6.3,6.3v12.4c0,3.5-2.8,6.3-6.3,6.3H6.3c-3.5,0-6.3-2.8-6.3-6.3V12.9
	C0,9.5,2.8,6.7,6.3,6.7z"/>
<path class="st1" d="M39,14.5c-0.2,0.2-0.5,0.1-0.7-0.1c-0.4-0.5-0.8-0.9-1.3-1.1c-0.7-0.4-1.6-0.6-2.4-0.6c-0.4,0-0.8,0-1.2,0.1
	c-0.4,0.1-0.7,0.2-1,0.4c-0.3,0.2-0.5,0.4-0.7,0.7c-0.2,0.3-0.3,0.6-0.3,1c0,0.7,0.4,1.3,1,1.6c1,0.5,2,0.8,3,1
	c0.8,0.2,1.6,0.4,2.3,0.7c0.7,0.2,1.3,0.6,1.9,1c0.5,0.4,0.9,0.9,1.2,1.5c0.3,0.6,0.5,1.3,0.4,2c0,0.9-0.2,1.8-0.6,2.6
	c-0.4,0.7-1,1.3-1.7,1.8c-0.7,0.5-1.4,0.8-2.2,1c-0.8,0.2-1.7,0.3-2.6,0.3c-1.3,0-2.7-0.3-3.9-0.8c-1.1-0.4-2.1-1.1-2.8-2
	c-0.2-0.2-0.2-0.5,0-0.7l1.7-1.5c0.2-0.2,0.5-0.1,0.7,0.1c0.5,0.5,1,1,1.6,1.3c0.8,0.5,1.8,0.7,2.7,0.7c0.4,0,0.9,0,1.3-0.1
	c0.4-0.1,0.8-0.2,1.1-0.4c0.3-0.2,0.6-0.5,0.8-0.8c0.2-0.4,0.3-0.8,0.3-1.2c0-0.8-0.4-1.5-1.1-1.8c-1.1-0.5-2.2-0.9-3.4-1.1
	c-0.6-0.1-1.2-0.3-1.8-0.5c-0.6-0.2-1.1-0.5-1.6-0.9c-0.5-0.4-0.9-0.8-1.2-1.4c-0.3-0.6-0.5-1.3-0.5-2c0-0.8,0.2-1.7,0.6-2.4
	c0.4-0.7,0.9-1.2,1.5-1.7c0.6-0.5,1.4-0.8,2.1-1c0.8-0.2,1.6-0.3,2.4-0.3c1.2,0,2.5,0.2,3.6,0.7c0.9,0.4,1.8,1,2.4,1.8
	c0.2,0.2,0.1,0.5-0.1,0.7c0,0,0,0,0,0L39,14.5z"/>
<path class="st1" d="M61.4,19v0.7c0,0.3-0.2,0.5-0.5,0.5H48c-0.3,0-0.5,0.2-0.5,0.5c0,0,0,0,0,0.1c0.1,0.5,0.2,1,0.5,1.5
	c0.3,0.6,0.7,1.2,1.2,1.7c1.1,1,2.5,1.5,4,1.5c1.1,0,2.1-0.2,3.1-0.8c0.7-0.4,1.3-0.9,1.7-1.5c0.2-0.2,0.5-0.2,0.7-0.1l1.7,1.3
	c0.2,0.2,0.2,0.5,0.1,0.7c0,0,0,0,0,0c-0.8,1-1.8,1.8-3,2.4c-2.5,1.1-5.3,1.2-7.9,0.2c-2.2-0.8-4-2.6-4.8-4.8
	c-0.5-1.2-0.7-2.5-0.7-3.8c0-1.3,0.2-2.5,0.7-3.7c0.4-1.1,1.1-2.1,1.9-2.9c0.8-0.8,1.8-1.5,2.9-1.9c2.3-0.9,4.8-0.9,7.1,0
	c1,0.4,1.9,1,2.7,1.8c0.8,0.8,1.3,1.8,1.7,2.9C61.3,16.5,61.4,17.7,61.4,19z M57.3,17.6c0.3,0,0.5-0.2,0.5-0.5c0,0,0,0,0-0.1
	c-0.1-0.5-0.2-0.9-0.3-1.4c-0.4-1.2-1.3-2.2-2.4-2.7c-0.7-0.2-1.4-0.4-2.1-0.4c-0.7,0-1.4,0.1-2.1,0.4c-0.6,0.2-1.2,0.6-1.7,1.1
	c-0.5,0.4-0.9,1-1.2,1.6c-0.2,0.4-0.4,0.9-0.5,1.4c0,0.3,0.1,0.5,0.4,0.6c0,0,0.1,0,0.1,0L57.3,17.6z"/>
<path class="st1" d="M65.6,12.4c0-0.5,0-1-0.1-1.4c0-0.3,0.2-0.5,0.5-0.5c0,0,0,0,0,0h2.3c0.3,0,0.5,0.2,0.5,0.4
	c0,0.3,0.1,0.7,0.1,1.1c0,0.6,0,1.1,0,1.4H69c0.5-1,1.2-1.9,2.2-2.5c0.9-0.6,2.1-1,3.2-0.9c0.3,0,0.6,0,0.9,0.1
	c0.2,0,0.4,0.2,0.4,0.5l-0.1,2.2c0,0.3-0.2,0.5-0.5,0.5c0,0,0,0,0,0c-0.3-0.1-0.7-0.1-1-0.1c-0.7,0-1.5,0.1-2.2,0.5
	c-0.6,0.3-1.1,0.7-1.5,1.2c-0.4,0.5-0.7,1.1-0.9,1.8c-0.2,0.7-0.3,1.4-0.3,2.1v8.7c0,0.3-0.2,0.5-0.5,0.5h-2.5
	c-0.3,0-0.5-0.2-0.5-0.5V14.2C65.7,13.7,65.7,13.1,65.6,12.4z"/>
<path class="st1" d="M81.5,36.7H79c-0.3,0-0.5-0.2-0.5-0.5V10.9c0-0.3,0.2-0.5,0.5-0.5c0,0,0,0,0,0h2.4c0.3,0,0.5,0.2,0.5,0.5
	c0,0,0,0,0,0v2.2H82c0.6-1,1.5-1.8,2.5-2.3c1.2-0.6,2.5-0.9,3.8-0.9c1.2,0,2.4,0.2,3.6,0.7c1,0.5,2,1.2,2.8,2
	c0.8,0.9,1.4,1.9,1.8,2.9c0.4,1.1,0.6,2.3,0.6,3.5c0,1.2-0.2,2.5-0.6,3.6c-0.4,1.1-1,2.1-1.8,3c-0.8,0.9-1.7,1.5-2.8,2
	c-1.2,0.5-2.4,0.7-3.7,0.7c-1.2,0-2.4-0.3-3.5-0.8c-1.1-0.5-2-1.3-2.6-2.3H82v11C82,36.5,81.8,36.7,81.5,36.7z M93.5,19.1
	c0-0.8-0.1-1.6-0.4-2.4c-0.2-0.7-0.6-1.4-1.1-2c-0.5-0.6-1.1-1.1-1.8-1.4c-0.8-0.4-1.7-0.5-2.5-0.5c-0.8,0-1.7,0.2-2.4,0.5
	c-0.7,0.3-1.3,0.8-1.9,1.4c-0.5,0.6-0.9,1.3-1.2,2c-0.6,1.5-0.6,3.2,0,4.8c0.3,0.7,0.7,1.4,1.2,2c0.5,0.6,1.2,1.1,1.9,1.4
	c0.8,0.3,1.6,0.5,2.4,0.5c0.9,0,1.7-0.2,2.5-0.5c0.7-0.3,1.3-0.8,1.8-1.4c0.5-0.6,0.9-1.3,1.1-2C93.4,20.7,93.5,19.9,93.5,19.1
	L93.5,19.1z"/>
<path class="st1" d="M105.4,4.1c0,0.6-0.2,1.2-0.7,1.6c-0.4,0.4-1,0.6-1.6,0.6c-0.6,0-1.2-0.2-1.6-0.7c-0.4-0.4-0.7-1-0.7-1.6
	c0-0.6,0.2-1.2,0.7-1.6c0.4-0.4,1-0.7,1.6-0.6c0.6,0,1.2,0.2,1.6,0.6C105.2,2.9,105.4,3.5,105.4,4.1z M104.4,27.9h-2.5
	c-0.3,0-0.5-0.2-0.5-0.5V10.9c0-0.3,0.2-0.5,0.5-0.5c0,0,0,0,0,0h2.5c0.3,0,0.5,0.2,0.5,0.5c0,0,0,0,0,0v16.5
	C104.9,27.7,104.7,27.9,104.4,27.9C104.4,27.9,104.4,27.9,104.4,27.9L104.4,27.9z"/>
<path class="st1" d="M113.5,27.9H111c-0.3,0-0.5-0.2-0.5-0.5V0.5c0-0.3,0.2-0.5,0.5-0.5h2.5c0.3,0,0.5,0.2,0.5,0.5v26.9
	C114,27.7,113.8,27.9,113.5,27.9C113.5,27.9,113.5,27.9,113.5,27.9z"/>
<path class="st1" d="M137.2,19.1c0,1.3-0.2,2.5-0.7,3.7c-0.5,1.1-1.1,2.1-2,2.9c-0.9,0.8-1.9,1.5-3,1.9c-2.4,0.9-5.1,0.9-7.4,0
	c-2.3-0.8-4.1-2.6-5-4.9c-0.5-1.2-0.7-2.4-0.7-3.7c0-1.3,0.2-2.5,0.7-3.7c0.5-1.1,1.1-2.1,2-2.9c0.9-0.8,1.9-1.5,3-1.9
	c2.4-0.9,5-0.9,7.4,0c1.1,0.4,2.1,1.1,3,1.9c0.9,0.8,1.5,1.8,2,2.9C136.9,16.6,137.2,17.8,137.2,19.1z M133.6,19.1
	c0-0.8-0.1-1.6-0.4-2.4c-0.2-0.7-0.6-1.4-1.1-2c-0.5-0.6-1.1-1.1-1.8-1.4c-1.6-0.7-3.4-0.7-5,0c-0.7,0.3-1.3,0.8-1.8,1.4
	c-0.5,0.6-0.9,1.3-1.1,2c-0.5,1.6-0.5,3.2,0,4.8c0.3,0.7,0.6,1.4,1.1,2c0.5,0.6,1.1,1.1,1.8,1.4c1.6,0.7,3.4,0.7,5,0
	c0.7-0.3,1.3-0.8,1.8-1.4c0.5-0.6,0.9-1.3,1.1-2C133.4,20.7,133.6,19.9,133.6,19.1L133.6,19.1z"/>
<path class="st1" d="M149.5,13.2h-3.7c-0.3,0-0.5,0.2-0.5,0.5c0,0,0,0,0,0v8.6c-0.1,0.8,0.1,1.6,0.6,2.3c0.5,0.5,1.2,0.7,1.9,0.7
	c0.3,0,0.7,0,1-0.1l0.4-0.1c0.3-0.1,0.5,0.1,0.6,0.3c0,0,0,0.1,0,0.1l0.1,1.8c0,0.2-0.1,0.4-0.3,0.5c-0.3,0.1-0.7,0.2-1,0.2
	c-0.5,0.1-1,0.1-1.6,0.1c-1.4,0.1-2.8-0.4-3.8-1.4c-1-1.1-1.4-2.6-1.3-4.1v-9c0-0.3-0.2-0.5-0.5-0.5c0,0,0,0,0,0H139
	c-0.3,0-0.5-0.2-0.5-0.5v-1.9c0-0.3,0.2-0.5,0.5-0.5h2.4c0.3,0,0.5-0.2,0.5-0.5c0,0,0,0,0,0v-4c0-0.3,0.2-0.5,0.5-0.5l0,0h2.5
	c0.3,0,0.5,0.2,0.5,0.5c0,0,0,0,0,0v4c0,0.3,0.2,0.5,0.5,0.5l0,0h3.7c0.3,0,0.5,0.2,0.5,0.5v1.9C150,13,149.8,13.2,149.5,13.2z"/>
</svg>
